# AST/ASF file generated using VICON BodyLanguage
# -----------------------------------------------
:version 1.10
:name VICON
:units
  mass 1.0
  length 0.45
  angle deg
:documentation
   .ast/.asf automatically generated from VICON data using
   VICON BodyBuilder and BodyLanguage model FoxedUp or BRILLIANT.MOD
:root
   order TX TY TZ RX RY RZ
   axis XYZ
   position 0 0 0  
   orientation 0 0 0 
:bonedata
  begin
     id 1 
     name lhipjoint
     direction 0.606768 -0.715223 0.346827 
     length 2.41543 
     axis 0 0 0  XYZ
  end
  begin
     id 2 
     name lfemur
     direction 0.34202 -0.939693 0  
     length 7.2778  
     axis 0 0 20  XYZ
    dof rx ry rz
    limits (-160.0 20.0)
           (-70.0 70.0)
           (-60.0 70.0)
  end
  begin
     id 3 
     name ltibia
     direction 0.34202 -0.939693 0   
     length 7.61811   
     axis 0 0 20   XYZ
    dof rx
    limits (-10.0 170.0)
  end
  begin
     id 4 
     name lfoot
     direction 0.0823924 -0.226371 0.97055   
     length 2.33618   
     axis -90 7.62852e-016 20   XYZ
    dof rx rz
    limits (-45.0 90.0)
           (-70.0 20.0)
  end
  begin
     id 5 
     name ltoes
     direction 1.53554e-011 -4.21934e-011 1   
     length 1.17015   
     axis -90 7.62852e-016 20   XYZ
    dof rx
    limits (-90.0 20.0)
  end
  begin
     id 6 
     name rhipjoint
     direction -0.6077 -0.714582 0.346516   
     length 2.4176  
     axis 0 0 0  XYZ 
  end
  begin
     id 7 
     name rfemur
     direction -0.34202 -0.939693 0   
     length 7.28127   
     axis 0 0 -20   XYZ
    dof rx ry rz
    limits (-160.0 20.0)
           (-70.0 70.0)
           (-70.0 60.0)
  end
  begin
     id 8 
     name rtibia
     direction -0.34202 -0.939693 0   
     length 7.77648   
     axis 0 0 -20   XYZ
    dof rx
    limits (-10.0 170.0)
 end
 begin
     id 9 
     name rfoot
     direction -0.0809463 -0.222398 0.97159   
     length 2.37533  
     axis -90 -7.62852e-016 -20   XYZ
    dof rx rz
    limits (-45.0 90.0)
           (-20.0 70.0)
  end
  begin
     id 10 
     name rtoes
     direction -1.53568e-011 -4.21714e-011 1   
     length 1.18972   
     axis -90 -7.62852e-016 -20   XYZ
    dof rx
    limits (-90.0 20.0)
  end
  begin
     id 11 
     name lowerback
     direction 0.010968 0.991932 -0.126297   
     length 2.21698   
     axis 0 0 0   XYZ
    dof rx ry rz
    limits (-20.0 45.0)
           (-30.0 30.0)
           (-30.0 30.0)
  end
  begin
     id 12 
     name upperback
     direction 0.0167007 0.997503 -0.0686276   
     length 2.22371   
     axis 0 0 0   XYZ
    dof rx ry rz
    limits (-20.0 45.0)
           (-30.0 30.0)
           (-30.0 30.0)
  end
  begin
     id 13 
     name thorax
     direction 0.0111721 0.999885 -0.0102878   
     length 2.25242   
     axis 0 0 0   XYZ
    dof rx ry rz
    limits (-20.0 45.0)
           (-30.0 30.0)
           (-30.0 30.0)
  end
  begin
     id 14 
     name lowerneck
     direction -0.0120265 0.990428 0.137508   
     length 1.57674   
     axis 0 0 0   XYZ
    dof rx ry rz
    limits (-20.0 45.0)
           (-30.0 30.0)
           (-30.0 30.0)
  end
  begin
     id 15 
     name upperneck
     direction 0.0175669 0.998907 0.0433089   
     length 1.5618   
     axis 0 0 0   XYZ
    dof rx ry rz
    limits (-20.0 45.0)
           (-30.0 30.0)
           (-30.0 30.0)
  end
  begin
     id 16
     name head
     direction 0.00754609 0.99997 0.00185367  
     length 1.60579  
     axis 0 0 0   XYZ
    dof rx ry rz
    limits (-20.0 45.0)
           (-30.0 30.0)
           (-30.0 30.0)
  end
  begin
     id 17 
     name lclavicle
     direction 0.885866 0.429166 -0.176231  
     length 3.44967  
     axis 0 0 0   XYZ
    dof ry rz
    limits (-20.0 10.0)
           (0.0 20.0)
  end
  begin
     id 18 
     name lhumerus
     direction 1 -4.48973e-011 -1.90255e-027   
     length 5.20607   
     axis 180 -30 -90   XYZ
    dof rx ry rz
    limits (-60.0 90.0)
           (-90.0 90.0)
           (-90.0 90.0)
  end
  begin
     id 19
     name lradius
     direction 1 -4.48956e-011 9.87925e-027   
     length 3.39961   
     axis 180 -30 -90   XYZ
    dof rx
    limits (-10.0 170.0)
  end
  begin
     id 20
     name lwrist
     direction 1 -4.48985e-011 1.73247e-026   
     length 1.6998   
     axis -9.60847e-015 90 90   XYZ
    dof ry
    limits (-180.0 0.0)
 end
  begin
     id 21 
     name lhand
     direction 1 -4.48798e-011 3.46119e-026   
     length 0.519693   
     axis -2.21073e-014 90 90   XYZ
    dof rx rz
    limits (-90.0 90.0)
           (-45.0 45.0)
  end
  begin
     id 22 
     name lfingers
     direction 1 -4.48938e-011 6.92797e-026   
     length 0.41899   
     axis -4.42155e-014 90 90   XYZ
    dof rx
    limits (0.0 90.0)
  end
  begin
     id 23
     name lthumb
     direction 0.707107 -6.34952e-011 0.707107   
     length 0.601588   
     axis -90 45 6.0103e-014   XYZ
    dof rx rz
    limits (-45.0 45.0)
           (-45.0 45.0)
  end
  begin
     id 24 
     name rclavicle
     direction -0.866736 0.456792 -0.200276   
     length 3.45032  
     axis 0 0 0   XYZ 
    dof ry rz
    limits (-10.0 20.0)
           (-20.0 0.0)
  end
  begin
     id 25 
     name rhumerus
     direction -1 -4.4897e-011 8.65094e-028  
     length 5.32214   
     axis 180 30 90   XYZ
    dof rx ry rz
    limits (-90.0 60.0)
           (-90.0 90.0)
           (-90.0 90.0)
  end
  begin
     id 26 
     name rradius
     direction -1 -4.48987e-011 1.08427e-026   
     length 3.51208   
     axis 180 30 90   XYZ
    dof rx
    limits (-10.0 170.0)
  end
  begin
     id 27 
     name rwrist
     direction -1 -4.48961e-011 1.73222e-026   
     length 1.75604   
     axis -9.60847e-015 -90 -90   XYZ
    dof ry
    limits (-180.0 0.0)
  end
  begin
     id 28
     name rhand
     direction -1 -4.48895e-011 3.46314e-026   
     length 0.586681   
     axis -2.21073e-014 -90 -90   XYZ
    dof rx rz
    limits (-90.0 90.0)
           (-45.0 45.0)
  end
  begin
     id 29
     name rfingers
     direction -1 -4.48968e-011 6.92916e-026   
     length 0.472997   
     axis -4.42155e-014 -90 -90   XYZ
    dof rx
    limits (0.0 90.0)
  end
  begin
     id 30
     name rthumb
     direction -0.707107 -6.34848e-011 0.707107   
     length 0.679133   
     axis -90 -45 -6.0103e-014   XYZ
    dof rx rz
    limits (-45.0 45.0)
           (-45.0 45.0)
  end
:hierarchy
  begin
    root lhipjoint rhipjoint lowerback
    lhipjoint lfemur
    lfemur ltibia
    ltibia lfoot
    lfoot ltoes
    rhipjoint rfemur
    rfemur rtibia
    rtibia rfoot
    rfoot rtoes
    lowerback upperback
    upperback thorax
    thorax lowerneck lclavicle rclavicle
    lowerneck upperneck
    upperneck head
    lclavicle lhumerus
    lhumerus lradius
    lradius lwrist
    lwrist lhand lthumb
    lhand lfingers
    rclavicle rhumerus
    rhumerus rradius
    rradius rwrist
    rwrist rhand rthumb
    rhand rfingers
  end

#!OML:ASF H:\Dans Jumps\Project 1\Capture day 1\Session 1\subject.ASF
:FULLY-SPECIFIED
:DEGREES
22
root 0.39236 17.6064 -13.9243 6.00311 -0.908484 -1.34102
lowerback -2.89192 -0.731804 0.311404
upperback 3.28523 -1.07077 1.66336
thorax 5.04401 -0.553903 1.4694
lowerneck -12.3235 0.83462 -1.84008
upperneck 34.8245 1.88456 -0.462753
head 13.8746 0.504986 0.422952
rclavicle 2.23633e-015 1.39149e-014
rhumerus -23.7944 -13.4266 -83.1891
rradius 24.0598
rwrist 31.6627
rhand -19.9971 -26.9962
rfingers 7.12502
rthumb 6.34258 -56.8813
lclavicle 2.23633e-015 1.39149e-014
lhumerus -19.9071 -7.54064 92.5607
lradius 19.8918
lwrist 4.28003
lhand -26.1484 -4.01518
lfingers 7.12502
lthumb 0.402401 25.9642
rfemur -12.4888 -3.6802 19.9373
rtibia 20.6269
rfoot -13.0535 -0.555498
rtoes 18.1103
lfemur -10.8241 6.65506 -18.0044
ltibia 17.6666
lfoot -10.9507 3.94371
ltoes 2.91423
23
root 0.392108 17.6063 -13.926 6.00211 -0.897054 -1.33633
lowerback -2.88764 -0.727475 0.307399
upperback 3.2903 -1.06486 1.66475
thorax 5.04683 -0.551168 1.47355
lowerneck -12.3179 0.837634 -1.84234
upperneck 34.8167 1.88903 -0.460934
head 13.8697 0.507145 0.42471
rclavicle 1.27222e-014 1.47101e-014
rhumerus -23.7711 -13.4156 -83.1917
rradius 24.0622
rwrist 31.6561
rhand -20.0134 -26.9841
rfingers 7.12502
rthumb 6.32684 -56.8697
lclavicle 1.27222e-014 1.47101e-014
lhumerus -19.8793 -7.52801 92.5297
lradius 19.8819
lwrist 4.26058
lhand -26.1477 -4.02048
lfingers 7.12502
lthumb 0.403102 25.9589
rfemur -12.4951 -3.68655 19.9338
rtibia 20.6305
rfoot -13.0459 -0.563703
rtoes 18.0869
lfemur -10.8319 6.64885 -18.0092
ltibia 17.6675
lfoot -10.9469 3.93901
ltoes 2.90556
24
root 0.391872 17.6063 -13.9277 6.00265 -0.88479 -1.33253
lowerback -2.88404 -0.723982 0.304615
upperback 3.29454 -1.06015 1.66673
thorax 5.04919 -0.548994 1.47753
lowerneck -12.3116 0.840137 -1.84769
upperneck 34.8112 1.89275 -0.456694
head 13.8657 0.508857 0.427875
rclavicle -8.84592e-015 -7.95139e-016
rhumerus -23.7486 -13.4024 -83.1943
rradius 24.0647
rwrist 31.6525
rhand -20.0292 -26.9748
rfingers 7.12502
rthumb 6.31158 -56.8608
lclavicle -8.84592e-015 -7.95139e-016
lhumerus -19.8517 -7.51467 92.4979
lradius 19.87
lwrist 4.24314
lhand -26.1608 -4.06332
lfingers 7.12502
lthumb 0.390452 25.9161
rfemur -12.5027 -3.69406 19.9314
rtibia 20.633
rfoot -13.0307 -0.569984
rtoes 18.0612
lfemur -10.8412 6.64097 -18.0131
ltibia 17.6681
lfoot -10.9419 3.93529
ltoes 2.89897
25
root 0.39163 17.6063 -13.9293 6.00494 -0.87399 -1.33084
lowerback -2.88251 -0.719987 0.30413
upperback 3.2991 -1.05497 1.66956
thorax 5.05302 -0.546519 1.48112
lowerneck -12.3073 0.842193 -1.85485
upperneck 34.808 1.89641 -0.452469
head 13.8632 0.510267 0.431369
rclavicle 4.12478e-015 -3.57812e-015
rhumerus -23.7243 -13.3927 -83.1959
rradius 24.0667
rwrist 31.6527
rhand -20.0405 -26.9669
rfingers 7.12502
rthumb 6.30073 -56.8532
lclavicle 4.12478e-015 -3.57812e-015
lhumerus -19.822 -7.50424 92.4666
lradius 19.8562
lwrist 4.23258
lhand -26.1842 -4.12383
lfingers 7.12502
lthumb 0.36783 25.8556
rfemur -12.5112 -3.69918 19.9315
rtibia 20.6338
rfoot -13.0123 -0.576165
rtoes 18.0446
lfemur -10.8524 6.6314 -18.0145
ltibia 17.6688
lfoot -10.9355 3.93407
ltoes 2.89829
26
root 0.391389 17.6064 -13.9308 6.00815 -0.864294 -1.33022
lowerback -2.8823 -0.716382 0.30496
upperback 3.30286 -1.0504 1.67266
thorax 5.05678 -0.544299 1.48419
lowerneck -12.2994 0.844756 -1.86308
upperneck 34.8052 1.90093 -0.448045
head 13.8599 0.511934 0.435229
rclavicle -1.38155e-014 1.90833e-014
rhumerus -23.7009 -13.3818 -83.1983
rradius 24.0689
rwrist 31.6517
rhand -20.0455 -26.9633
rfingers 7.12502
rthumb 6.29593 -56.8498
lclavicle -1.38155e-014 1.90833e-014
lhumerus -19.7944 -7.49446 92.4346
lradius 19.8427
lwrist 4.22593
lhand -26.2057 -4.17086
lfingers 7.12502
lthumb 0.347049 25.8086
rfemur -12.5192 -3.70195 19.9323
rtibia 20.6332
rfoot -12.9938 -0.581316
rtoes 18.0377
lfemur -10.8639 6.62363 -18.0148
ltibia 17.6694
lfoot -10.9289 3.93213
ltoes 2.89894
27
root 0.391127 17.6064 -13.9323 6.01185 -0.854037 -1.33005
lowerback -2.88453 -0.712773 0.307443
upperback 3.3073 -1.04592 1.67508
thorax 5.0626 -0.542055 1.4856
lowerneck -12.2938 0.847879 -1.86535
upperneck 34.8053 1.90615 -0.44762
head 13.8587 0.514101 0.436572
rclavicle 1.09332e-015 -1.03368e-014
rhumerus -23.678 -13.3742 -83.2016
rradius 24.0723
rwrist 31.6496
rhand -20.0467 -26.9636
rfingers 7.12502
rthumb 6.29469 -56.8501
lclavicle 1.09332e-015 -1.03368e-014
lhumerus -19.771 -7.49055 92.4019
lradius 19.8364
lwrist 4.22262
lhand -26.2216 -4.19099
lfingers 7.12502
lthumb 0.331706 25.7885
rfemur -12.5264 -3.70412 19.9337
rtibia 20.6315
rfoot -12.9772 -0.585784
rtoes 18.043
lfemur -10.8756 6.61783 -18.0144
ltibia 17.6695
lfoot -10.9235 3.92699
ltoes 2.90508
28
root 0.390887 17.6064 -13.9336 6.01482 -0.844389 -1.3282
lowerback -2.88888 -0.709158 0.309856
upperback 3.31318 -1.04141 1.67592
thorax 5.0711 -0.539774 1.48539
lowerneck -12.2928 0.850937 -1.86256
upperneck 34.8091 1.91154 -0.451319
head 13.8602 0.516367 0.435449
rclavicle -3.32964e-015 4.37326e-015
rhumerus -23.6546 -13.372 -83.2063
rradius 24.0768
rwrist 31.6445
rhand -20.0444 -26.9739
rfingers 7.12502
rthumb 6.29698 -56.8603
lclavicle -3.32964e-015 4.37326e-015
lhumerus -19.7513 -7.48966 92.3682
lradius 19.8352
lwrist 4.22257
lhand -26.2261 -4.17442
lfingers 7.12502
lthumb 0.327352 25.8051
rfemur -12.5314 -3.70687 19.9328
rtibia 20.629
rfoot -12.9655 -0.589142
rtoes 18.0453
lfemur -10.8852 6.61426 -18.0158
ltibia 17.6685
lfoot -10.9194 3.91941
ltoes 2.90784
29
root 0.390584 17.6065 -13.9349 6.01804 -0.835919 -1.32613
lowerback -2.89531 -0.705072 0.311997
upperback 3.3209 -1.0363 1.67615
thorax 5.08268 -0.537199 1.48472
lowerneck -12.2966 0.852321 -1.85819
upperneck 34.8136 1.9149 -0.457122
head 13.8632 0.517643 0.432934
rclavicle 1.14301e-015 -4.37326e-015
rhumerus -23.6298 -13.3736 -83.2115
rradius 24.0818
rwrist 31.6389
rhand -20.0427 -26.9812
rfingers 7.12502
rthumb 6.29856 -56.8675
lclavicle 1.14301e-015 -4.37326e-015
lhumerus -19.7333 -7.48933 92.3332
lradius 19.8381
lwrist 4.225
lhand -26.2295 -4.13505
lfingers 7.12502
lthumb 0.324059 25.8444
rfemur -12.5366 -3.70709 19.9317
rtibia 20.6261
rfoot -12.9617 -0.594062
rtoes 18.0596
lfemur -10.8939 6.61413 -18.0172
ltibia 17.6662
lfoot -10.9174 3.90858
ltoes 2.91575
30
root 0.390306 17.6065 -13.936 6.02 -0.827732 -1.32443
lowerback -2.90326 -0.70063 0.315999
upperback 3.33064 -1.03083 1.67581
thorax 5.09721 -0.53438 1.48242
lowerneck -12.3016 0.8532 -1.85115
upperneck 34.8179 1.91751 -0.464902
head 13.8664 0.518673 0.429052
rclavicle -1.15792e-014 1.31198e-014
rhumerus -23.6042 -13.3811 -83.2162
rradius 24.0866
rwrist 31.6326
rhand -20.0423 -26.9892
rfingers 7.12502
rthumb 6.299 -56.8756
lclavicle -1.15792e-014 1.31198e-014
lhumerus -19.7195 -7.48956 92.2983
lradius 19.8473
lwrist 4.23091
lhand -26.2316 -4.09228
lfingers 7.12502
lthumb 0.322042 25.8872
rfemur -12.5402 -3.71033 19.9311
rtibia 20.6231
rfoot -12.9576 -0.596856
rtoes 18.0658
lfemur -10.8997 6.61496 -18.018
ltibia 17.6624
lfoot -10.9163 3.89631
ltoes 2.92824
31
root 0.390067 17.6066 -13.9372 6.02127 -0.822016 -1.32183
lowerback -2.91154 -0.695411 0.319906
upperback 3.34168 -1.02434 1.67507
thorax 5.11324 -0.53105 1.47983
lowerneck -12.311 0.851803 -1.84532
upperneck 34.8242 1.91775 -0.474124
head 13.8716 0.518274 0.424491
rclavicle -1.05853e-014 4.77083e-015
rhumerus -23.5772 -13.3899 -83.2203
rradius 24.0897
rwrist 31.6223
rhand -20.047 -26.9924
rfingers 7.12502
rthumb 6.29442 -56.8789
lclavicle -1.05853e-014 4.77083e-015
lhumerus -19.7061 -7.48107 92.2624
lradius 19.8547
lwrist 4.23168
lhand -26.24 -4.07564
lfingers 7.12502
lthumb 0.313984 25.9039
rfemur -12.5432 -3.71474 19.9293
rtibia 20.62
rfoot -12.9594 -0.599015
rtoes 18.0621
lfemur -10.904 6.6165 -18.02
ltibia 17.6581
lfoot -10.9163 3.88599
ltoes 2.93978
32
root 0.389798 17.6067 -13.9383 6.02205 -0.815965 -1.31775
lowerback -2.91658 -0.690697 0.32242
upperback 3.35166 -1.01837 1.67431
thorax 5.12636 -0.528029 1.47799
lowerneck -12.3189 0.849107 -1.8415
upperneck 34.8299 1.91633 -0.482709
head 13.8761 0.516987 0.420269
rclavicle -5.66536e-015 -1.07344e-014
rhumerus -23.5538 -13.3978 -83.2231
rradius 24.0943
rwrist 31.6117
rhand -20.0519 -26.9906
rfingers 7.12502
rthumb 6.28973 -56.8772
lclavicle -5.66536e-015 -1.07344e-014
lhumerus -19.6959 -7.45944 92.2256
lradius 19.8608
lwrist 4.2244
lhand -26.2517 -4.08803
lfingers 7.12502
lthumb 0.302607 25.8915
rfemur -12.5466 -3.72036 19.9261
rtibia 20.6176
rfoot -12.9593 -0.601911
rtoes 18.0448
lfemur -10.9076 6.61691 -18.0237
ltibia 17.6532
lfoot -10.9145 3.87653
ltoes 2.95271
